<?xml version="1.0" ?><svg xmlns="http://www.w3.org/2000/svg" xmlns:xlink="http://www.w3.org/1999/xlink" version="1.1" id="Layer_1" x="0px" y="0px" width="109" viewBox="0 0 2000 437" enable-background="new 0 0 2000 437" xml:space="preserve" height="57">
<path fill="#4C6971" opacity="1.000000" stroke="none" d=" M1311.000000,438.000000   C874.000000,438.000000 437.500000,438.000000 1.000000,438.000000   C1.000000,292.333344 1.000000,146.666672 1.000000,1.000000   C667.666687,1.000000 1334.333374,1.000000 2001.000000,1.000000   C2001.000000,146.666672 2001.000000,292.333344 2001.000000,438.000000   C1771.166626,438.000000 1541.333374,438.000000 1311.000000,438.000000  M1793.604858,392.698853   C1795.089844,390.471680 1796.574829,388.244507 1798.388184,386.743927   C1798.920166,391.030731 1799.518311,395.310608 1799.969116,399.605957   C1800.732544,406.880890 1801.268188,414.182434 1802.176270,421.438171   C1802.560181,424.506348 1803.005859,427.988281 1807.489868,427.975494   C1821.819092,427.934631 1836.151245,428.042480 1850.473022,427.697754   C1851.979004,427.661469 1853.961182,425.244751 1854.739258,423.495117   C1855.486328,421.814758 1854.981934,419.566162 1854.982056,417.567230   C1854.987915,355.746582 1855.185669,293.924713 1854.810059,232.106323   C1854.741089,220.742691 1853.644775,209.051147 1850.768311,198.103317   C1843.082520,168.851639 1824.655396,148.616760 1795.509644,137.530838   C1790.008911,135.993011 1784.508057,134.455185 1779.001221,132.975906   C1779.001221,132.975906 1779.048950,133.010452 1778.772827,132.637054   C1778.571045,132.398026 1778.331787,132.205856 1777.254517,132.007217   C1776.186401,131.961105 1775.118286,131.914978 1773.353882,131.515564   C1765.159058,130.677246 1756.980835,129.575363 1748.765869,129.056976   C1732.985962,128.061203 1717.407471,129.959473 1701.500977,133.282761   C1701.264893,133.522644 1701.028931,133.762543 1700.376709,134.070114   C1700.376709,134.070114 1699.964722,134.160126 1699.209229,134.245148   C1690.962036,137.258163 1682.347778,139.538712 1674.548828,143.446442   C1660.987183,150.241562 1648.904419,159.211166 1639.207275,171.174026   C1630.292114,182.172195 1623.723511,194.360428 1619.782104,207.906509   C1619.374634,209.307236 1620.710205,212.439713 1621.941772,212.905670   C1636.241089,218.315704 1650.672241,223.378540 1665.078979,228.503403   C1667.675781,229.427109 1669.050659,228.866241 1670.246826,225.857986   C1672.745483,219.574936 1675.631348,213.359818 1679.120483,207.576782   C1684.381348,198.857269 1692.477173,193.035751 1701.921753,187.929504   C1716.306030,180.749695 1731.708374,179.000626 1747.433350,180.138199   C1759.765625,181.030319 1771.900146,183.628204 1781.534790,192.059372   C1786.556641,196.453918 1790.526611,202.050430 1795.061157,207.871658   C1798.931641,218.926804 1798.015747,230.398819 1797.863647,241.779678   C1797.839844,243.570602 1796.621338,245.345581 1795.286865,247.120239   C1794.444336,247.344864 1793.601685,247.569489 1792.159912,247.917816   C1791.759399,247.995255 1791.358765,248.072678 1790.182007,248.098663   C1788.428101,248.352814 1786.674194,248.606949 1784.179810,248.934250   C1783.439209,249.006149 1782.698486,249.078049 1781.096191,249.098846   C1762.046875,251.233109 1742.987549,253.283493 1723.952759,255.540314   C1715.605347,256.529999 1707.308105,257.940887 1698.168213,259.142914   C1686.674316,262.380890 1674.839600,264.741302 1663.759399,269.044495   C1642.471924,277.311920 1625.677490,291.240417 1615.426514,312.147552   C1608.435181,326.406952 1606.464966,341.469025 1607.906250,357.230652   C1609.179199,371.151398 1613.195190,384.026825 1621.620972,395.146912   C1640.738647,420.377594 1667.756714,429.118866 1698.906250,430.915314   C1717.255859,431.486176 1735.390747,430.691650 1752.931274,424.268341   C1766.308350,419.369659 1777.458008,411.439545 1787.086548,401.062317   C1787.086548,401.062317 1787.060791,401.008789 1787.561646,400.578613   C1789.402710,398.061371 1791.243774,395.544159 1793.030029,393.018585   C1793.030029,393.018585 1793.041382,393.072876 1793.604858,392.698853  M867.635071,106.757263   C875.033508,98.689461 882.483093,90.667900 889.818481,82.543159   C901.259827,69.870735 912.603577,57.110184 924.027954,44.422386   C930.904236,36.785629 937.901184,29.257162 944.737061,21.584766   C946.279175,19.853968 947.376526,17.726929 949.173950,15.042358   C924.251587,15.042358 900.451965,15.013611 876.652893,15.121539   C875.372131,15.127347 873.820862,16.005110 872.872375,16.953701   C870.415527,19.410564 868.225403,22.134052 865.341980,25.108625   C841.201233,52.053192 817.060486,78.997757 792.347168,106.282753   C783.820984,115.757652 775.330750,125.265182 766.761108,134.700684   C749.159302,154.081070 731.514893,173.422836 712.976074,192.938141   C708.478271,192.990097 703.980408,193.083054 699.482605,193.084259   C693.020691,193.085999 693.000000,193.057465 692.999207,186.426041   C692.992981,131.760864 692.998840,77.095688 692.981628,22.430517   C692.980957,20.161850 692.788452,17.893244 692.676758,15.436399   C690.733093,15.302587 689.265259,15.119830 687.796570,15.112944   C671.465088,15.036374 655.130493,15.144461 638.803772,14.831314   C634.100098,14.741098 632.911133,16.358219 632.914368,20.843100   C633.011169,154.672714 633.012268,288.502411 632.910339,422.332031   C632.906982,426.746704 634.268677,428.073792 638.622375,428.018402   C655.119263,427.808350 671.620361,427.943451 688.119934,427.915771   C689.565491,427.913361 691.010742,427.665802 692.994873,427.482300   C692.994873,424.885315 692.994873,422.591522 692.994873,420.297699   C692.995117,363.632568 692.973389,306.967438 693.079956,250.302505   C693.083984,248.143768 694.327576,245.987350 695.924255,243.941864   C699.918274,243.965134 703.967346,243.596558 707.887268,244.147202   C710.572693,244.524429 713.732239,245.537949 715.546509,247.381989   C721.934326,253.874435 727.892395,260.796021 733.903748,267.651123   C744.611084,279.861420 755.246277,292.135071 765.896545,304.395386   C774.035583,313.764893 782.108765,323.192017 790.289795,332.524628   C798.117249,341.453979 806.046082,350.294495 814.293335,359.721649   C818.481201,364.629913 822.599976,369.599121 826.869873,374.434967   C839.794250,389.072571 853.461853,403.123627 865.459106,418.481812   C871.802185,426.601898 878.578369,429.285400 888.925964,427.936798   C909.490601,427.936798 930.055237,427.936798 952.024292,427.936798   C950.058167,425.320770 949.021545,423.752014 947.797180,422.346741   C943.555603,417.478271 939.266296,412.650940 934.963257,407.836487   C925.621887,397.384979 916.234558,386.974396 906.919922,376.499176   C902.870239,371.945007 898.961853,367.265411 894.965698,362.663300   C894.428101,362.044189 893.752136,361.545258 892.787292,360.411713   C881.309631,347.549530 869.798279,334.717163 858.367554,321.813385   C852.104736,314.743622 846.083984,307.457855 839.762329,300.442200   C832.316528,292.179016 824.663086,284.102875 816.910950,275.402954   C816.830383,275.229156 816.749817,275.055389 816.543274,274.467621   C816.395630,274.216156 816.219604,273.986389 815.706665,273.186554   C810.294373,267.189301 804.029785,262.160797 799.346436,255.248718   C793.971985,247.316620 786.537354,240.790756 780.089844,233.571716   C775.717590,228.676315 771.503967,223.639175 767.168640,218.606369   C776.354919,208.158203 785.189392,198.110275 794.619141,187.745422   C796.048523,186.356995 797.573425,185.053314 798.892151,183.566696   C808.898987,172.285858 818.819702,160.928360 828.856018,149.673965   C841.546021,135.443695 854.319824,121.288254 867.635071,106.757263  M1061.683228,427.182709   C1072.620483,428.806183 1083.518799,431.364929 1094.504517,431.821503   C1108.935303,432.421204 1123.292603,430.108398 1136.847168,424.853180   C1142.992310,422.470612 1149.949951,421.011902 1154.805664,414.979675   C1155.567383,414.674591 1156.329224,414.369507 1157.766724,413.923981   C1163.544434,408.992798 1169.322144,404.061615 1175.532715,398.675018   C1176.590210,397.709290 1177.647827,396.743530 1179.277100,395.255646   C1180.596558,405.406311 1181.999634,414.393158 1182.829956,423.432617   C1183.186523,427.315826 1184.951904,428.040405 1188.273071,428.017456   C1201.937378,427.922974 1215.604736,427.847290 1229.266602,428.050903   C1233.605347,428.115540 1235.055420,426.663025 1235.051147,422.293854   C1234.958374,327.805511 1234.952759,233.317047 1235.065308,138.828766   C1235.070923,134.095215 1233.300903,132.881653 1228.913330,132.939880   C1214.750977,133.127853 1200.584473,132.989212 1186.419556,133.000900   C1179.027588,133.007004 1179.001587,133.030136 1179.000244,140.500443   C1178.991455,187.994629 1179.212280,235.490448 1178.854248,282.981934   C1178.754517,296.197479 1177.717529,309.516113 1175.736816,322.579163   C1173.296875,338.671173 1166.350220,352.921997 1153.365845,364.288177   C1141.529541,375.020752 1127.331543,379.358826 1111.650146,380.042572   C1099.752319,380.561340 1088.287598,378.674835 1076.602417,374.394348   C1062.562500,367.708923 1053.486206,356.763672 1047.660645,342.418640   C1041.651123,327.620483 1040.290405,312.105225 1040.161865,296.604706   C1039.726685,244.132980 1039.939941,191.655289 1040.082275,139.180359   C1040.095337,134.425690 1038.745239,132.812271 1033.888550,132.906738   C1019.734009,133.182037 1005.570496,132.988739 991.410522,132.996231   C984.017334,133.000153 983.996887,133.016357 983.996094,140.358078   C983.990234,195.665405 983.812561,250.973770 984.130615,306.279266   C984.202759,318.824249 984.958740,331.551819 987.225281,343.859192   C992.076904,370.204742 1003.654480,393.188812 1025.467773,409.828552   C1036.063477,417.911194 1047.596436,424.415039 1061.683228,427.182709  M1471.334717,190.666473   C1476.498413,196.019241 1482.630859,200.737579 1486.633911,206.850388   C1496.449829,221.839966 1499.971436,238.928238 1499.996826,256.675171   C1500.074585,311.172302 1499.983154,365.669647 1499.976562,420.166931   C1499.975708,427.475098 1500.390991,427.901245 1507.531982,427.923248   C1521.364624,427.965851 1535.197632,427.956818 1549.030396,427.943848   C1556.957886,427.936432 1556.982666,427.914001 1556.984009,419.817322   C1556.992432,367.985870 1557.195312,316.153046 1556.853516,264.323853   C1556.760742,250.252258 1555.942749,236.050278 1553.833740,222.154587   C1549.065918,190.740601 1535.625244,163.999649 1508.372681,145.843262   C1497.645264,138.696304 1485.960938,133.638687 1472.269897,131.799393   C1461.888672,130.865814 1451.521851,129.390244 1441.123169,129.114227   C1420.996460,128.579987 1402.371826,134.354233 1385.154785,144.559174   C1380.790771,147.145798 1377.013062,150.721619 1372.411499,154.227844   C1368.999634,157.493332 1365.587769,160.758820 1361.648438,164.529022   C1360.918701,162.185699 1360.250244,160.822281 1360.093140,159.402283   C1359.326416,152.478683 1358.408691,145.551819 1358.121826,138.602280   C1357.938599,134.162674 1356.068481,132.913422 1351.948120,132.959045   C1338.618774,133.106613 1325.284302,133.150116 1311.956909,132.927094   C1307.333984,132.849716 1305.928833,134.586075 1305.932983,139.065201   C1306.019653,233.382446 1306.021851,327.699829 1305.927490,422.017059   C1305.922852,426.549774 1307.395508,428.150269 1311.963257,428.079620   C1325.957520,427.863190 1339.957275,428.009644 1353.954834,427.993591   C1361.960571,427.984406 1361.942505,427.965546 1361.992188,419.920654   C1362.336304,364.138092 1362.577759,308.354553 1363.114624,252.573868   C1363.252686,238.230896 1367.606201,224.797791 1374.612793,211.581635   C1378.488892,206.873795 1382.056396,201.865433 1386.297119,197.512863   C1400.505981,182.929276 1418.827515,179.889969 1437.987183,180.394043   C1449.687866,180.701889 1460.813721,184.018448 1471.334717,190.666473  M380.985779,205.449921   C413.956390,187.761246 446.930481,170.079132 479.893311,152.375946   C484.184753,150.071167 488.417938,147.657913 493.356171,144.918808   C490.847870,143.589386 489.124359,142.687744 487.411530,141.766235   C472.837158,133.925095 458.261444,126.086426 443.692383,118.235443   C410.459473,100.326874 377.236481,82.399849 343.997284,64.502968   C316.587433,49.744789 289.108002,35.114368 261.801819,20.167126   C258.091187,18.135952 255.292145,18.111137 251.746384,20.027893   C219.257782,37.590454 186.708755,55.041134 154.185318,72.539284   C111.758995,95.365364 69.337234,118.199913 26.926006,141.054001   C24.854679,142.170181 22.903063,143.508499 20.129686,145.214615   C30.170502,150.521072 39.266323,155.252472 48.293228,160.111877   C86.622749,180.745590 124.940506,201.401199 163.243912,222.083359   C177.659668,229.867233 192.001175,237.788681 206.419449,245.567856   C222.009399,253.979202 237.616394,262.361023 253.317093,270.562103   C254.950928,271.415497 257.655762,271.740204 259.207123,270.976501   C267.668396,266.811340 275.944000,262.265411 284.246918,257.782745   C316.289673,240.483200 348.318573,223.157974 380.985779,205.449921  M1921.989502,318.500000   C1921.992676,352.653290 1921.978027,386.806580 1922.015625,420.959808   C1922.022461,427.186554 1922.782104,427.950775 1928.904541,427.974701   C1942.898804,428.029358 1956.893555,428.021729 1970.887939,427.968048   C1977.163086,427.944000 1977.847412,427.209869 1977.977905,421.135681   C1978.006592,419.803436 1977.992676,418.470154 1977.992676,417.137360   C1977.993164,283.023163 1977.993042,148.908997 1977.990967,14.794807   C1977.990967,12.962386 1977.927612,11.129542 1977.951172,9.297636   C1977.996094,5.813391 1976.372314,4.045460 1972.821045,4.048371   C1957.660767,4.060801 1942.500488,4.065407 1927.340210,4.025015   C1923.503540,4.014794 1921.927856,5.954665 1922.014893,9.621069   C1922.062378,11.618769 1921.991333,13.619031 1921.991333,15.618138   C1921.989502,116.245422 1921.989502,216.872711 1921.989502,318.500000  M49.720684,201.203003   C40.184731,206.400986 30.648773,211.598984 20.578251,217.088348   C22.668358,218.628098 24.102879,219.975662 25.777809,220.875961   C61.323784,239.982681 96.905151,259.023529 132.461365,278.111237   C153.608505,289.463684 174.717926,300.886383 195.856171,312.255463   C215.086700,322.598572 234.347321,332.885864 253.553528,343.273834   C255.773788,344.474670 257.364563,344.621490 259.776001,343.215668   C267.064453,338.966614 274.676636,335.277161 282.108459,331.269135   C318.558289,311.611389 354.970612,291.884064 391.435028,272.253387   C423.955872,254.745773 456.530273,237.337631 489.065277,219.856216   C490.259277,219.214676 491.286346,218.262512 492.840546,217.126724   C477.788910,209.022049 463.336914,201.399414 449.067230,193.449646   C445.295837,191.348557 442.396362,191.577820 438.695190,193.604950   C414.293671,206.969528 389.769745,220.110718 365.281403,233.316696   C331.333954,251.623734 297.315491,269.801270 263.504913,288.357574   C258.378021,291.171356 254.492493,291.649170 249.637573,288.194061   C245.636780,285.346832 240.950546,283.469330 236.593521,281.115051   C209.411102,266.427124 182.256683,251.687225 155.052322,237.040070   C127.520836,222.216782 99.964020,207.439850 72.330193,192.809006   C70.674950,191.932632 67.909355,191.807190 66.227737,192.574921   C60.812733,195.047134 55.663528,198.101547 49.720684,201.203003  M371.881836,359.396149   C372.278992,359.093475 372.643494,358.729950 373.077972,358.496857   C406.637512,340.490936 440.208221,322.505920 473.762054,304.489349   C479.955841,301.163635 486.082916,297.713776 493.225983,293.778442   C476.156403,284.579620 460.085266,275.918854 444.032074,267.267761   C405.271210,288.143158 366.643158,308.924530 328.037598,329.747498   C305.882812,341.697327 283.774048,353.732452 261.616516,365.677155   C259.092438,367.037842 256.801239,368.676117 253.405792,366.814117   C223.547150,350.439911 193.596634,334.232941 163.647141,318.024811   C133.521713,301.721497 103.395981,285.417755 73.154945,269.331207   C71.209915,268.296570 67.817665,268.238342 65.871391,269.234985   C53.787052,275.423035 41.927490,282.049683 29.984142,288.513763   C26.994024,290.132111 23.970184,291.688141 19.930937,293.815887   C27.362953,297.777710 33.735462,301.135803 40.072498,304.559570   C67.578705,319.420593 95.066002,334.316650 122.577026,349.168732   C142.961655,360.173553 163.373672,371.127655 183.770905,382.109131   C206.930878,394.577911 230.060150,407.104553 253.304169,419.414551   C254.990128,420.307404 257.897644,420.422546 259.564941,419.575684   C271.083313,413.725220 282.434540,407.544525 293.817993,401.429932   C319.635712,387.562073 345.441071,373.671173 371.881836,359.396149  z"/>
<path fill="#000000" opacity="1.000000" stroke="none" d=" M380.669189,205.646118   C348.318573,223.157974 316.289673,240.483200 284.246918,257.782745   C275.944000,262.265411 267.668396,266.811340 259.207123,270.976501   C257.655762,271.740204 254.950928,271.415497 253.317093,270.562103   C237.616394,262.361023 222.009399,253.979202 206.419449,245.567856   C192.001175,237.788681 177.659668,229.867233 163.243912,222.083359   C124.940506,201.401199 86.622749,180.745590 48.293228,160.111877   C39.266323,155.252472 30.170502,150.521072 20.129686,145.214615   C22.903063,143.508499 24.854679,142.170181 26.926006,141.054001   C69.337234,118.199913 111.758995,95.365364 154.185318,72.539284   C186.708755,55.041134 219.257782,37.590454 251.746384,20.027893   C255.292145,18.111137 258.091187,18.135952 261.801819,20.167126   C289.108002,35.114368 316.587433,49.744789 343.997284,64.502968   C377.236481,82.399849 410.459473,100.326874 443.692383,118.235443   C458.261444,126.086426 472.837158,133.925095 487.411530,141.766235   C489.124359,142.687744 490.847870,143.589386 493.356171,144.918808   C488.417938,147.657913 484.184753,150.071167 479.893311,152.375946   C446.930481,170.079132 413.956390,187.761246 380.669189,205.646118  z"/>
<path fill="#161616" opacity="1.000000" stroke="none" d=" M694.993469,243.829834   C694.327576,245.987350 693.083984,248.143768 693.079956,250.302505   C692.973389,306.967438 692.995117,363.632568 692.994873,420.297699   C692.994873,422.591522 692.994873,424.885315 692.994873,427.482300   C691.010742,427.665802 689.565491,427.913361 688.119934,427.915771   C671.620361,427.943451 655.119263,427.808350 638.622375,428.018402   C634.268677,428.073792 632.906982,426.746704 632.910339,422.332031   C633.012268,288.502411 633.011169,154.672714 632.914368,20.843100   C632.911133,16.358219 634.100098,14.741098 638.803772,14.831314   C655.130493,15.144461 671.465088,15.036374 687.796570,15.112944   C689.265259,15.119830 690.733093,15.302587 692.676758,15.436399   C692.788452,17.893244 692.980957,20.161850 692.981628,22.430517   C692.998840,77.095688 692.992981,131.760864 692.999207,186.426041   C693.000000,193.057465 693.020691,193.085999 699.482605,193.084259   C703.980408,193.083054 708.478271,192.990097 713.741455,193.063965   C715.659424,195.413071 717.751648,197.612488 717.808838,199.863586   C718.132874,212.622345 717.942688,225.393600 717.989746,238.160355   C718.003357,241.849075 717.040833,242.867264 712.923157,241.972366   C706.952026,240.674683 700.510498,238.992569 694.993469,243.829834  z"/>
<path fill="#4B4B4B" opacity="1.000000" stroke="none" d=" M1921.989502,318.000000   C1921.989502,216.872711 1921.989502,116.245422 1921.991333,15.618138   C1921.991333,13.619031 1922.062378,11.618769 1922.014893,9.621069   C1921.927856,5.954665 1923.503540,4.014794 1927.340210,4.025015   C1942.500488,4.065407 1957.660767,4.060801 1972.821045,4.048371   C1976.372314,4.045460 1977.996094,5.813391 1977.951172,9.297636   C1977.927612,11.129542 1977.990967,12.962386 1977.990967,14.794807   C1977.993042,148.908997 1977.993164,283.023163 1977.992676,417.137360   C1977.992676,418.470154 1978.006592,419.803436 1977.977905,421.135681   C1977.847412,427.209869 1977.163086,427.944000 1970.887939,427.968048   C1956.893555,428.021729 1942.898804,428.029358 1928.904541,427.974701   C1922.782104,427.950775 1922.022461,427.186554 1922.015625,420.959808   C1921.978027,386.806580 1921.992676,352.653290 1921.989502,318.000000  z"/>
<path fill="#000000" opacity="1.000000" stroke="none" d=" M50.066261,201.067230   C55.663528,198.101547 60.812733,195.047134 66.227737,192.574921   C67.909355,191.807190 70.674950,191.932632 72.330193,192.809006   C99.964020,207.439850 127.520836,222.216782 155.052322,237.040070   C182.256683,251.687225 209.411102,266.427124 236.593521,281.115051   C240.950546,283.469330 245.636780,285.346832 249.637573,288.194061   C254.492493,291.649170 258.378021,291.171356 263.504913,288.357574   C297.315491,269.801270 331.333954,251.623734 365.281403,233.316696   C389.769745,220.110718 414.293671,206.969528 438.695190,193.604950   C442.396362,191.577820 445.295837,191.348557 449.067230,193.449646   C463.336914,201.399414 477.788910,209.022049 492.840546,217.126724   C491.286346,218.262512 490.259277,219.214676 489.065277,219.856216   C456.530273,237.337631 423.955872,254.745773 391.435028,272.253387   C354.970612,291.884064 318.558289,311.611389 282.108459,331.269135   C274.676636,335.277161 267.064453,338.966614 259.776001,343.215668   C257.364563,344.621490 255.773788,344.474670 253.553528,343.273834   C234.347321,332.885864 215.086700,322.598572 195.856171,312.255463   C174.717926,300.886383 153.608505,289.463684 132.461365,278.111237   C96.905151,259.023529 61.323784,239.982681 25.777809,220.875961   C24.102879,219.975662 22.668358,218.628098 20.578251,217.088348   C30.648773,211.598984 40.184731,206.400986 50.066261,201.067230  z"/>
<path fill="#000000" opacity="1.000000" stroke="none" d=" M371.566650,359.592896   C345.441071,373.671173 319.635712,387.562073 293.817993,401.429932   C282.434540,407.544525 271.083313,413.725220 259.564941,419.575684   C257.897644,420.422546 254.990128,420.307404 253.304169,419.414551   C230.060150,407.104553 206.930878,394.577911 183.770905,382.109131   C163.373672,371.127655 142.961655,360.173553 122.577026,349.168732   C95.066002,334.316650 67.578705,319.420593 40.072498,304.559570   C33.735462,301.135803 27.362953,297.777710 19.930937,293.815887   C23.970184,291.688141 26.994024,290.132111 29.984142,288.513763   C41.927490,282.049683 53.787052,275.423035 65.871391,269.234985   C67.817665,268.238342 71.209915,268.296570 73.154945,269.331207   C103.395981,285.417755 133.521713,301.721497 163.647141,318.024811   C193.596634,334.232941 223.547150,350.439911 253.405792,366.814117   C256.801239,368.676117 259.092438,367.037842 261.616516,365.677155   C283.774048,353.732452 305.882812,341.697327 328.037598,329.747498   C366.643158,308.924530 405.271210,288.143158 444.032074,267.267761   C460.085266,275.918854 476.156403,284.579620 493.225983,293.778442   C486.082916,297.713776 479.955841,301.163635 473.762054,304.489349   C440.208221,322.505920 406.637512,340.490936 373.077972,358.496857   C372.643494,358.729950 372.278992,359.093475 371.566650,359.592896  z"/>
<path fill="#464646" opacity="1.000000" stroke="none" d=" M1795.955078,247.127930   C1796.621338,245.345581 1797.839844,243.570602 1797.863647,241.779678   C1798.015747,230.398819 1798.931641,218.926804 1794.981689,207.098145   C1793.147827,196.589951 1785.758667,191.502289 1778.170166,186.993744   C1774.459229,184.788986 1772.937500,182.303864 1772.998535,178.257309   C1773.088989,172.261795 1772.878662,166.260437 1773.029663,160.267456   C1773.268311,150.798706 1773.700195,141.334808 1774.050171,131.868866   C1775.118286,131.914978 1776.186401,131.961105 1777.817627,132.193695   C1778.601685,132.592041 1778.824463,132.802124 1779.048950,133.010452   C1779.048950,133.010452 1779.001221,132.975906 1779.235107,133.205154   C1785.015869,134.937836 1790.562988,136.441269 1796.109985,137.944717   C1824.655396,148.616760 1843.082520,168.851639 1850.768311,198.103317   C1853.644775,209.051147 1854.741089,220.742691 1854.810059,232.106323   C1855.185669,293.924713 1854.987915,355.746582 1854.982056,417.567230   C1854.981934,419.566162 1855.486328,421.814758 1854.739258,423.495117   C1853.961182,425.244751 1851.979004,427.661469 1850.473022,427.697754   C1836.151245,428.042480 1821.819092,427.934631 1807.489868,427.975494   C1803.005859,427.988281 1802.560181,424.506348 1802.176270,421.438171   C1801.268188,414.182434 1800.732544,406.880890 1799.969116,399.605957   C1799.518311,395.310608 1798.920166,391.030731 1797.878418,386.473175   C1795.926270,388.492554 1794.483765,390.782715 1793.041382,393.072876   C1793.041382,393.072876 1793.030029,393.018585 1792.723755,393.147827   C1788.755981,394.554657 1786.911743,397.091217 1787.060791,401.008789   C1787.060791,401.008789 1787.086548,401.062317 1786.704224,401.130127   C1783.541748,402.948883 1780.640503,404.537292 1778.013550,406.493988   C1775.054932,408.697693 1773.090088,408.227173 1773.183350,404.532684   C1773.534790,390.608032 1771.203369,376.557220 1775.161377,362.523529   C1777.208862,360.152039 1779.202026,358.139496 1780.912109,355.909851   C1792.893555,340.288910 1797.688965,322.318268 1798.137451,302.694122   C1798.158691,301.661682 1798.113647,300.863861 1798.050171,299.665405   C1797.442017,297.230499 1796.852417,295.196228 1795.931641,293.007202   C1790.687622,292.646729 1785.768799,292.186523 1780.863525,292.301941   C1775.142212,292.436554 1774.141235,291.835114 1774.050659,286.005188   C1773.934570,278.531738 1774.128174,271.052643 1773.960815,263.581085   C1773.834473,257.945740 1773.461182,252.397186 1780.709595,250.654037   C1781.216919,250.532043 1781.546021,249.668640 1781.957886,249.149979   C1782.698486,249.078049 1783.439209,249.006149 1784.777588,249.129364   C1787.749878,251.374191 1789.509399,250.500931 1790.958252,248.150131   C1791.358765,248.072678 1791.759399,247.995255 1792.707886,247.935669   C1794.155640,247.678314 1795.055298,247.403122 1795.955078,247.127930  z"/>
<path fill="#2D2D2D" opacity="1.000000" stroke="none" d=" M1157.090942,414.064392   C1156.329224,414.369507 1155.567383,414.674591 1154.229736,414.893921   C1153.104370,412.845612 1152.022949,410.864868 1152.089355,408.923492   C1152.601196,393.971985 1153.335815,379.028137 1154.001221,364.081909   C1166.350220,352.921997 1173.296875,338.671173 1175.736816,322.579163   C1177.717529,309.516113 1178.754517,296.197479 1178.854248,282.981934   C1179.212280,235.490448 1178.991455,187.994629 1179.000244,140.500443   C1179.001587,133.030136 1179.027588,133.007004 1186.419556,133.000900   C1200.584473,132.989212 1214.750977,133.127853 1228.913330,132.939880   C1233.300903,132.881653 1235.070923,134.095215 1235.065308,138.828766   C1234.952759,233.317047 1234.958374,327.805511 1235.051147,422.293854   C1235.055420,426.663025 1233.605347,428.115540 1229.266602,428.050903   C1215.604736,427.847290 1201.937378,427.922974 1188.273071,428.017456   C1184.951904,428.040405 1183.186523,427.315826 1182.829956,423.432617   C1181.999634,414.393158 1180.596558,405.406311 1179.277100,395.255646   C1177.647827,396.743530 1176.590210,397.709290 1175.005859,398.791229   C1173.071533,399.115936 1171.248901,398.834778 1170.327393,399.616272   C1165.949707,403.328674 1161.771851,407.283539 1157.651855,411.284790   C1157.092529,411.827911 1157.260010,413.119385 1157.090942,414.064392  z"/>
<path fill="#323232" opacity="1.000000" stroke="none" d=" M1374.168945,212.086456   C1367.606201,224.797791 1363.252686,238.230896 1363.114624,252.573868   C1362.577759,308.354553 1362.336304,364.138092 1361.992188,419.920654   C1361.942505,427.965546 1361.960571,427.984406 1353.954834,427.993591   C1339.957275,428.009644 1325.957520,427.863190 1311.963257,428.079620   C1307.395508,428.150269 1305.922852,426.549774 1305.927490,422.017059   C1306.021851,327.699829 1306.019653,233.382446 1305.932983,139.065201   C1305.928833,134.586075 1307.333984,132.849716 1311.956909,132.927094   C1325.284302,133.150116 1338.618774,133.106613 1351.948120,132.959045   C1356.068481,132.913422 1357.938599,134.162674 1358.121826,138.602280   C1358.408691,145.551819 1359.326416,152.478683 1360.093140,159.402283   C1360.250244,160.822281 1360.918701,162.185699 1361.648438,164.529022   C1365.587769,160.758820 1368.999634,157.493332 1372.755127,154.462830   C1373.316406,171.874802 1373.522827,189.051941 1373.766479,206.228561   C1373.794189,208.182709 1374.029785,210.133896 1374.168945,212.086456  z"/>
<path fill="#3A3A3A" opacity="1.000000" stroke="none" d=" M1472.968018,132.165161   C1485.960938,133.638687 1497.645264,138.696304 1508.372681,145.843262   C1535.625244,163.999649 1549.065918,190.740601 1553.833740,222.154587   C1555.942749,236.050278 1556.760742,250.252258 1556.853516,264.323853   C1557.195312,316.153046 1556.992432,367.985870 1556.984009,419.817322   C1556.982666,427.914001 1556.957886,427.936432 1549.030396,427.943848   C1535.197632,427.956818 1521.364624,427.965851 1507.531982,427.923248   C1500.390991,427.901245 1499.975708,427.475098 1499.976562,420.166931   C1499.983154,365.669647 1500.074585,311.172302 1499.996826,256.675171   C1499.971436,238.928238 1496.449829,221.839966 1486.633911,206.850388   C1482.630859,200.737579 1476.498413,196.019241 1471.155884,189.910568   C1470.985840,173.713470 1470.875732,158.270584 1471.092773,142.832321   C1471.142822,139.268524 1472.313232,135.720474 1472.968018,132.165161  z"/>
<path fill="#252525" opacity="1.000000" stroke="none" d=" M1060.991577,426.833527   C1047.596436,424.415039 1036.063477,417.911194 1025.467773,409.828552   C1003.654480,393.188812 992.076904,370.204742 987.225281,343.859192   C984.958740,331.551819 984.202759,318.824249 984.130615,306.279266   C983.812561,250.973770 983.990234,195.665405 983.996094,140.358078   C983.996887,133.016357 984.017334,133.000153 991.410522,132.996231   C1005.570496,132.988739 1019.734009,133.182037 1033.888550,132.906738   C1038.745239,132.812271 1040.095337,134.425690 1040.082275,139.180359   C1039.939941,191.655289 1039.726685,244.132980 1040.161865,296.604706   C1040.290405,312.105225 1041.651123,327.620483 1047.660645,342.418640   C1053.486206,356.763672 1062.562500,367.708923 1076.574951,374.859619   C1074.235840,375.255280 1071.594482,375.883057 1069.678589,374.976807   C1065.119141,372.820099 1060.902710,369.938049 1055.809448,366.910156   C1055.493774,369.535767 1055.050293,371.566620 1055.038086,373.600006   C1054.968628,385.207001 1054.982544,396.814606 1055.008179,408.421936   C1055.020752,414.146790 1053.962036,420.206421 1059.986694,424.101257   C1060.638184,424.522400 1060.671509,425.899719 1060.991577,426.833527  z"/>
<path fill="#1A1A1A" opacity="1.000000" stroke="none" d=" M695.458862,243.885849   C700.510498,238.992569 706.952026,240.674683 712.923157,241.972366   C717.040833,242.867264 718.003357,241.849075 717.989746,238.160355   C717.942688,225.393600 718.132874,212.622345 717.808838,199.863586   C717.751648,197.612488 715.659424,195.413071 714.197449,192.985153   C731.514893,173.422836 749.159302,154.081070 766.761108,134.700684   C775.330750,125.265182 783.820984,115.757652 792.774963,106.504555   C793.468201,109.529205 793.956238,112.331421 793.964172,115.134995   C794.032959,139.443954 794.015564,163.753174 794.023804,188.062317   C785.189392,198.110275 776.354919,208.158203 767.168640,218.606369   C771.503967,223.639175 775.717590,228.676315 780.089844,233.571716   C786.537354,240.790756 793.971985,247.316620 799.346436,255.248718   C804.029785,262.160797 810.294373,267.189301 815.961670,273.672791   C816.357727,274.406067 816.508545,274.646942 816.669312,274.881622   C816.749817,275.055389 816.830383,275.229156 816.861084,276.065369   C816.541199,279.529388 816.045593,282.330261 816.036804,285.132660   C815.969727,306.442657 816.087769,327.753754 815.903931,349.062408   C815.874817,352.438354 814.619019,355.803741 813.930420,359.174011   C806.046082,350.294495 798.117249,341.453979 790.289795,332.524628   C782.108765,323.192017 774.035583,313.764893 765.896545,304.395386   C755.246277,292.135071 744.611084,279.861420 733.903748,267.651123   C727.892395,260.796021 721.934326,253.874435 715.546509,247.381989   C713.732239,245.537949 710.572693,244.524429 707.887268,244.147202   C703.967346,243.596558 699.918274,243.965134 695.458862,243.885849  z"/>
<path fill="#404040" opacity="1.000000" stroke="none" d=" M1697.965088,430.843323   C1667.756714,429.118866 1640.738647,420.377594 1621.620972,395.146912   C1613.195190,384.026825 1609.179199,371.151398 1607.906250,357.230652   C1606.464966,341.469025 1608.435181,326.406952 1615.426514,312.147552   C1625.677490,291.240417 1642.471924,277.311920 1663.759399,269.044495   C1674.839600,264.741302 1686.674316,262.380890 1698.579834,259.607666   C1698.994385,266.551697 1698.877441,273.033752 1699.028809,279.509552   C1699.241943,288.622681 1699.654053,297.731140 1699.657471,307.009155   C1693.754150,310.025421 1687.870850,312.408020 1682.649536,315.807434   C1664.602661,327.557129 1662.101074,354.265045 1677.153931,369.627655   C1683.311157,375.911346 1691.026123,379.073822 1698.845947,382.225159   C1698.182983,383.966187 1697.278076,385.370422 1697.291382,386.765930   C1697.431763,401.459229 1697.718628,416.151062 1697.965088,430.843323  z"/>
<path fill="#1E1E1E" opacity="1.000000" stroke="none" d=" M814.111816,359.447815   C814.619019,355.803741 815.874817,352.438354 815.903931,349.062408   C816.087769,327.753754 815.969727,306.442657 816.036804,285.132660   C816.045593,282.330261 816.541199,279.529388 816.955444,276.336700   C824.663086,284.102875 832.316528,292.179016 839.762329,300.442200   C846.083984,307.457855 852.104736,314.743622 858.367554,321.813385   C869.798279,334.717163 881.309631,347.549530 892.593628,360.784027   C887.969299,362.091888 888.025879,365.579742 888.021545,368.965851   C887.996094,388.588531 887.999084,408.211212 887.992432,427.833893   C878.578369,429.285400 871.802185,426.601898 865.459106,418.481812   C853.461853,403.123627 839.794250,389.072571 826.869873,374.434967   C822.599976,369.599121 818.481201,364.629913 814.111816,359.447815  z"/>
<path fill="#1D1D1D" opacity="1.000000" stroke="none" d=" M794.321472,187.903870   C794.015564,163.753174 794.032959,139.443954 793.964172,115.134995   C793.956238,112.331421 793.468201,109.529205 793.061279,106.334343   C817.060486,78.997757 841.201233,52.053192 865.635376,25.382236   C865.622009,29.797857 865.070068,33.938698 865.050232,38.082077   C864.956482,57.705353 864.911499,77.330246 865.099854,96.952156   C865.132324,100.340897 866.374207,103.718025 867.057434,107.100517   C854.319824,121.288254 841.546021,135.443695 828.856018,149.673965   C818.819702,160.928360 808.898987,172.285858 798.892151,183.566696   C797.573425,185.053314 796.048523,186.356995 794.321472,187.903870  z"/>
<path fill="#353535" opacity="1.000000" stroke="none" d=" M1472.618896,131.982269   C1472.313232,135.720474 1471.142822,139.268524 1471.092773,142.832321   C1470.875732,158.270584 1470.985840,173.713470 1470.972412,189.631409   C1460.813721,184.018448 1449.687866,180.701889 1437.987183,180.394043   C1418.827515,179.889969 1400.505981,182.929276 1386.297119,197.512863   C1382.056396,201.865433 1378.488892,206.873795 1374.390869,211.834045   C1374.029785,210.133896 1373.794189,208.182709 1373.766479,206.228561   C1373.522827,189.051941 1373.316406,171.874802 1373.032471,154.270355   C1377.013062,150.721619 1380.790771,147.145798 1385.154785,144.559174   C1402.371826,134.354233 1420.996460,128.579987 1441.123169,129.114227   C1451.521851,129.390244 1461.888672,130.865814 1472.618896,131.982269  z"/>
<path fill="#292929" opacity="1.000000" stroke="none" d=" M1061.337402,427.008118   C1060.671509,425.899719 1060.638184,424.522400 1059.986694,424.101257   C1053.962036,420.206421 1055.020752,414.146790 1055.008179,408.421936   C1054.982544,396.814606 1054.968628,385.207001 1055.038086,373.600006   C1055.050293,371.566620 1055.493774,369.535767 1055.809448,366.910156   C1060.902710,369.938049 1065.119141,372.820099 1069.678589,374.976807   C1071.594482,375.883057 1074.235840,375.255280 1076.807251,375.110779   C1088.287598,378.674835 1099.752319,380.561340 1111.650146,380.042572   C1127.331543,379.358826 1141.529541,375.020752 1153.683594,364.185059   C1153.335815,379.028137 1152.601196,393.971985 1152.089355,408.923492   C1152.022949,410.864868 1153.104370,412.845612 1153.912598,414.918579   C1149.949951,421.011902 1142.992310,422.470612 1136.847168,424.853180   C1123.292603,430.108398 1108.935303,432.421204 1094.504517,431.821503   C1083.518799,431.364929 1072.620483,428.806183 1061.337402,427.008118  z"/>
<path fill="#404040" opacity="1.000000" stroke="none" d=" M1701.252441,188.144867   C1692.477173,193.035751 1684.381348,198.857269 1679.120483,207.576782   C1675.631348,213.359818 1672.745483,219.574936 1670.246826,225.857986   C1669.050659,228.866241 1667.675781,229.427109 1665.078979,228.503403   C1650.672241,223.378540 1636.241089,218.315704 1621.941772,212.905670   C1620.710205,212.439713 1619.374634,209.307236 1619.782104,207.906509   C1623.723511,194.360428 1630.292114,182.172195 1639.207275,171.174026   C1648.904419,159.211166 1660.987183,150.241562 1674.548828,143.446442   C1682.347778,139.538712 1690.962036,137.258163 1699.499268,134.597198   C1699.586182,151.203140 1699.328369,167.456848 1699.272705,183.711258   C1699.267578,185.186859 1700.561646,186.666885 1701.252441,188.144867  z"/>
<path fill="#202020" opacity="1.000000" stroke="none" d=" M867.346252,106.928886   C866.374207,103.718025 865.132324,100.340897 865.099854,96.952156   C864.911499,77.330246 864.956482,57.705353 865.050232,38.082077   C865.070068,33.938698 865.622009,29.797857 865.928833,25.203472   C868.225403,22.134052 870.415527,19.410564 872.872375,16.953701   C873.820862,16.005110 875.372131,15.127347 876.652893,15.121539   C900.451965,15.013611 924.251587,15.042358 949.173950,15.042358   C947.376526,17.726929 946.279175,19.853968 944.737061,21.584766   C937.901184,29.257162 930.904236,36.785629 924.027954,44.422386   C912.603577,57.110184 901.259827,69.870735 889.818481,82.543159   C882.483093,90.667900 875.033508,98.689461 867.346252,106.928886  z"/>
<path fill="#434343" opacity="1.000000" stroke="none" d=" M1701.587158,188.037186   C1700.561646,186.666885 1699.267578,185.186859 1699.272705,183.711258   C1699.328369,167.456848 1699.586182,151.203140 1699.876953,134.554688   C1699.964722,134.160126 1700.376709,134.070114 1700.781738,133.881668   C1701.446533,133.487183 1701.702271,133.276062 1701.953735,133.059891   C1717.407471,129.959473 1732.985962,128.061203 1748.765869,129.056976   C1756.980835,129.575363 1765.159058,130.677246 1773.702026,131.692215   C1773.700195,141.334808 1773.268311,150.798706 1773.029663,160.267456   C1772.878662,166.260437 1773.088989,172.261795 1772.998535,178.257309   C1772.937500,182.303864 1774.459229,184.788986 1778.170166,186.993744   C1785.758667,191.502289 1793.147827,196.589951 1794.937012,206.714340   C1790.526611,202.050430 1786.556641,196.453918 1781.534790,192.059372   C1771.900146,183.628204 1759.765625,181.030319 1747.433350,180.138199   C1731.708374,179.000626 1716.306030,180.749695 1701.587158,188.037186  z"/>
<path fill="#434343" opacity="1.000000" stroke="none" d=" M1698.435669,430.879333   C1697.718628,416.151062 1697.431763,401.459229 1697.291382,386.765930   C1697.278076,385.370422 1698.182983,383.966187 1699.274170,382.259460   C1700.878418,382.044983 1701.870728,382.128815 1702.861328,382.230255   C1729.380249,384.944946 1754.076782,380.903900 1774.976196,362.782074   C1771.203369,376.557220 1773.534790,390.608032 1773.183350,404.532684   C1773.090088,408.227173 1775.054932,408.697693 1778.013550,406.493988   C1780.640503,404.537292 1783.541748,402.948883 1786.674561,401.132477   C1777.458008,411.439545 1766.308350,419.369659 1752.931274,424.268341   C1735.390747,430.691650 1717.255859,431.486176 1698.435669,430.879333  z"/>
<path fill="#434343" opacity="1.000000" stroke="none" d=" M1699.981079,306.841614   C1699.654053,297.731140 1699.241943,288.622681 1699.028809,279.509552   C1698.877441,273.033752 1698.994385,266.551697 1698.989746,259.616455   C1707.308105,257.940887 1715.605347,256.529999 1723.952759,255.540314   C1742.987549,253.283493 1762.046875,251.233109 1781.527100,249.124420   C1781.546021,249.668640 1781.216919,250.532043 1780.709595,250.654037   C1773.461182,252.397186 1773.834473,257.945740 1773.960815,263.581085   C1774.128174,271.052643 1773.934570,278.531738 1774.050659,286.005188   C1774.141235,291.835114 1775.142212,292.436554 1780.863525,292.301941   C1785.768799,292.186523 1790.687622,292.646729 1795.579956,293.230011   C1790.772827,294.166504 1785.976685,294.653534 1781.201294,295.296082   C1754.854004,298.841278 1728.511841,302.424377 1701.984497,306.145264   C1701.557861,306.496460 1701.317871,306.700653 1700.805664,306.900024   C1700.347168,306.874817 1700.164062,306.858215 1699.981079,306.841614  z"/>
<path fill="#202020" opacity="1.000000" stroke="none" d=" M888.459229,427.885345   C887.999084,408.211212 887.996094,388.588531 888.021545,368.965851   C888.025879,365.579742 887.969299,362.091888 892.770142,361.073517   C893.752136,361.545258 894.428101,362.044189 894.965698,362.663300   C898.961853,367.265411 902.870239,371.945007 906.919922,376.499176   C916.234558,386.974396 925.621887,397.384979 934.963257,407.836487   C939.266296,412.650940 943.555603,417.478271 947.797180,422.346741   C949.021545,423.752014 950.058167,425.320770 952.024292,427.936798   C930.055237,427.936798 909.490601,427.936798 888.459229,427.885345  z"/>
<path fill="#292929" opacity="1.000000" stroke="none" d=" M1157.428833,413.994202   C1157.260010,413.119385 1157.092529,411.827911 1157.651855,411.284790   C1161.771851,407.283539 1165.949707,403.328674 1170.327393,399.616272   C1171.248901,398.834778 1173.071533,399.115936 1174.789307,399.018921   C1169.322144,404.061615 1163.544434,408.992798 1157.428833,413.994202  z"/>
<path fill="#434343" opacity="1.000000" stroke="none" d=" M1795.809814,137.737762   C1790.562988,136.441269 1785.015869,134.937836 1779.238037,133.175873   C1784.508057,134.455185 1790.008911,135.993011 1795.809814,137.737762  z"/>
<path fill="#434343" opacity="1.000000" stroke="none" d=" M1787.311279,400.793701   C1786.911743,397.091217 1788.755981,394.554657 1792.751221,393.151978   C1791.243774,395.544159 1789.402710,398.061371 1787.311279,400.793701  z"/>
<path fill="#434343" opacity="1.000000" stroke="none" d=" M1793.323120,392.885864   C1794.483765,390.782715 1795.926270,388.492554 1797.714233,386.109863   C1796.574829,388.244507 1795.089844,390.471680 1793.323120,392.885864  z"/>
<path fill="#434343" opacity="1.000000" stroke="none" d=" M1790.570068,248.124405   C1789.509399,250.500931 1787.749878,251.374191 1785.147827,249.092804   C1786.674194,248.606949 1788.428101,248.352814 1790.570068,248.124405  z"/>
<path fill="#434343" opacity="1.000000" stroke="none" d=" M1795.620972,247.124084   C1795.055298,247.403122 1794.155640,247.678314 1793.007568,247.873810   C1793.601685,247.569489 1794.444336,247.344864 1795.620972,247.124084  z"/>
<path fill="#434343" opacity="1.000000" stroke="none" d=" M1778.910889,132.823761   C1778.824463,132.802124 1778.601685,132.592041 1778.217773,132.220367   C1778.331787,132.205856 1778.571045,132.398026 1778.910889,132.823761  z"/>
<path fill="#404040" opacity="1.000000" stroke="none" d=" M1701.727295,133.171326   C1701.702271,133.276062 1701.446533,133.487183 1700.989746,133.847839   C1701.028931,133.762543 1701.264893,133.522644 1701.727295,133.171326  z"/>
<path fill="#1E1E1E" opacity="1.000000" stroke="none" d=" M816.606323,274.674622   C816.508545,274.646942 816.357727,274.406067 816.116028,273.968658   C816.219604,273.986389 816.395630,274.216156 816.606323,274.674622  z"/>
<path fill="#4C6971" opacity="1.000000" stroke="none" d=" M1702.167847,305.994476   C1728.511841,302.424377 1754.854004,298.841278 1781.201294,295.296082   C1785.976685,294.653534 1790.772827,294.166504 1795.911133,293.384827   C1796.852417,295.196228 1797.442017,297.230499 1798.030762,300.022766   C1798.043701,301.496735 1798.057495,302.212738 1798.071289,302.928741   C1797.688965,322.318268 1792.893555,340.288910 1780.912109,355.909851   C1779.202026,358.139496 1777.208862,360.152039 1775.161377,362.523529   C1754.076782,380.903900 1729.380249,384.944946 1702.861328,382.230255   C1701.870728,382.128815 1700.878418,382.044983 1699.458496,381.918640   C1691.026123,379.073822 1683.311157,375.911346 1677.153931,369.627655   C1662.101074,354.265045 1664.602661,327.557129 1682.649536,315.807434   C1687.870850,312.408020 1693.754150,310.025421 1699.657471,307.009155   C1700.164062,306.858215 1700.347168,306.874817 1701.014648,306.785370   C1701.752197,306.480591 1701.975098,306.252319 1702.167847,305.994476  z"/>
<path fill="#434343" opacity="1.000000" stroke="none" d=" M1798.137451,302.694122   C1798.057495,302.212738 1798.043701,301.496735 1798.049316,300.423401   C1798.113647,300.863861 1798.158691,301.661682 1798.137451,302.694122  z"/>
<path fill="#404040" opacity="1.000000" stroke="none" d=" M1701.984497,306.145264   C1701.975098,306.252319 1701.752197,306.480591 1701.290039,306.793945   C1701.317871,306.700653 1701.557861,306.496460 1701.984497,306.145264  z"/>
</svg>